<svg width="24" height="24" viewBox="0 0 24 24" fill="none"
    xmlns="http://www.w3.org/2000/svg">
    <path d="M17.4917 3.904C18.8609 3.97667 20.1447 4.5659 21.0633 5.5433C21.9819 6.5207 22.4609 7.80704 22.3958 9.122C22.3958 12.194 19.6333 14.081 16.9823 16.344C14.3656 18.587 12.9563 19.813 12.5 20.096C12.0031 19.787 10.2677 18.273 8.01772 16.344C5.35522 14.072 2.60418 12.167 2.60418 9.122C2.53914 7.80704 3.01812 6.5207 3.93674 5.5433C4.85535 4.5659 6.13914 3.97667 7.50834 3.904C8.26683 3.88193 9.0183 4.04918 9.68929 4.3894C10.3603 4.72962 10.9278 5.23116 11.3365 5.845C12.2115 7.02 12.3573 7.608 12.5031 7.608C12.649 7.608 12.7927 7.02 13.6594 5.842C14.0657 5.22532 14.6335 4.72179 15.306 4.38171C15.9784 4.04163 16.7321 3.87691 17.4917 3.904ZM17.4917 1.904C16.5458 1.87493 15.6052 2.05108 14.7401 2.41935C13.8749 2.78762 13.1074 3.33851 12.4948 4.031C11.8827 3.34053 11.1168 2.79091 10.2537 2.42275C9.39061 2.0546 8.45239 1.87731 7.50834 1.904C5.58633 1.97615 3.77228 2.77598 2.46286 4.12859C1.15345 5.4812 0.455212 7.27653 0.520843 9.122C0.520843 12.732 3.17709 14.949 5.7448 17.092C6.03959 17.338 6.33751 17.586 6.63334 17.839L7.70313 18.757C8.86984 19.8228 10.093 20.8301 11.3677 21.775C11.705 21.9846 12.0982 22.0962 12.5 22.0962C12.9018 22.0962 13.295 21.9846 13.6323 21.775C14.9476 20.8013 16.2084 19.7615 17.4094 18.66L18.3698 17.836C18.675 17.576 18.9844 17.317 19.2917 17.062C21.7229 15.037 24.4792 12.742 24.4792 9.122C24.5448 7.27653 23.8466 5.4812 22.5372 4.12859C21.2277 2.77598 19.4137 1.97615 17.4917 1.904Z" fill="#171717"/>
</svg>