<svg width="41" height="39" viewBox="0 0 38 38" fill="none"
    xmlns="http://www.w3.org/2000/svg">
    <path d="M3.41669 19.5V25.1063C3.41669 29.7359 4.6091 31.6144 6.16027 33.1403C7.7661 34.6174 9.74435 35.7533 14.6097 35.7533H26.3904C31.2557 35.7533 33.2339 34.6158 34.8398 33.1403C36.3909 31.6144 37.5834 29.7375 37.5834 25.1063V13.897C37.5834 9.26738 36.3909 7.38725 34.8398 5.86138C33.2339 4.3875 31.2557 3.25 26.3904 3.25H14.6097C9.74435 3.25 7.7661 4.38588 6.16027 5.86138C4.6091 7.38888 3.41669 9.26738 3.41669 13.897V19.5Z" stroke="#171717" stroke-width="2" stroke-linecap="round" stroke-linejoin="round"/>
    <path d="M11.181 19.5016H29.8189" stroke="#171717" stroke-width="2" stroke-linecap="round" stroke-linejoin="round"/>
    <path d="M20.5051 10.6356V28.3644" stroke="#171717" stroke-width="2" stroke-linecap="round" stroke-linejoin="round"/>
</svg>
