<svg width="38" height="38" viewBox="0 0 38 38" fill="none"
    xmlns="http://www.w3.org/2000/svg">
    <path d="M30.0834 16.625C30.0834 19.2868 29.294 21.8888 27.8152 24.102C26.3364 26.3153 24.2345 28.0402 21.7753 29.0589C19.3161 30.0775 16.6101 30.344 13.9994 29.8247C11.3888 29.3054 8.99073 28.0237 7.10855 26.1415C5.22637 24.2593 3.94458 21.8612 3.42529 19.2506C2.906 16.6399 3.17252 13.9339 4.19115 11.4747C5.20978 9.01552 6.93477 6.91362 9.14798 5.43479C11.3612 3.95597 13.9632 3.16666 16.625 3.16666C20.1944 3.16666 23.6176 4.58458 26.1415 7.10851C28.6654 9.63244 30.0834 13.0556 30.0834 16.625Z" stroke="#171717" stroke-width="2" stroke-linecap="round" stroke-linejoin="round"/>
    <path d="M26.1424 26.1424L34.8333 34.8333" stroke="#171717" stroke-width="2" stroke-linecap="round" stroke-linejoin="round"/>
</svg>
